<?xml version="1.0" encoding="UTF-8"?>
<svg width="467px" height="166px" viewBox="0 0 467 166" version="1.1" xmlns="http://www.w3.org/2000/svg" xmlns:xlink="http://www.w3.org/1999/xlink">
    <defs>
        <path d="M16.538,57 L16.538,37.982 L35.778,37.982 L35.778,26.586 L16.538,26.586 L16.538,16.596 L36.148,16.596 L36.148,5.2 L4.698,5.2 L4.698,57 L16.538,57 Z M55.018,57 L55.018,39.98 L60.642,39.98 L70.41,57 L83.138,57 L72.112,37.982 C74.9733333,36.502 77.2796667,34.4176667 79.031,31.729 C80.7823333,29.0403333 81.658,26.1173333 81.658,22.96 C81.658,18.0266667 79.9313333,13.8333333 76.478,10.38 C73.0246667,6.92666667 68.8313333,5.2 63.898,5.2 L63.898,5.2 L43.178,5.2 L43.178,57 L55.018,57 Z M63.898,29.62 L55.018,29.62 L55.018,16.3 L63.898,16.3 C65.526,16.3 66.9196667,16.9413333 68.079,18.224 C69.2383333,19.5066667 69.818,21.0853333 69.818,22.96 C69.818,24.8346667 69.2383333,26.4133333 68.079,27.696 C66.9196667,28.9786667 65.526,29.62 63.898,29.62 L63.898,29.62 Z M112.664,58.036 C120.162667,58.036 126.526667,55.446 131.756,50.266 C136.985333,45.086 139.6,38.6973333 139.6,31.1 C139.6,23.5026667 136.985333,17.114 131.756,11.934 C126.526667,6.754 120.162667,4.164 112.664,4.164 C105.165333,4.164 98.8013333,6.754 93.572,11.934 C88.3426667,17.114 85.728,23.5026667 85.728,31.1 C85.728,38.6973333 88.3426667,45.086 93.572,50.266 C98.8013333,55.446 105.165333,58.036 112.664,58.036 Z M112.664,46.492 C108.372,46.492 104.770667,45.0613333 101.86,42.2 C98.9986667,39.3386667 97.568,35.6386667 97.568,31.1 C97.568,26.5613333 99.011,22.8613333 101.897,20 C104.783,17.1386667 108.372,15.708 112.664,15.708 C116.956,15.708 120.545,17.1386667 123.431,20 C126.317,22.8613333 127.76,26.5613333 127.76,31.1 C127.76,35.6386667 126.317,39.3386667 123.431,42.2 C120.545,45.0613333 116.956,46.492 112.664,46.492 Z M158.1,57 L158.1,28.88 L178.08,57 L186.96,57 L186.96,5.2 L175.12,5.2 L175.12,33.32 L155.14,5.2 L146.26,5.2 L146.26,57 L158.1,57 Z M217.3,57 L217.3,16.596 L230.62,16.596 L230.62,5.2 L192.14,5.2 L192.14,16.596 L205.46,16.596 L205.46,57 L217.3,57 Z M260.22,40.202 L260.22,29.546 L232.1,29.546 L232.1,40.202 L260.22,40.202 Z M301.66,57 L301.66,45.604 L280.94,45.604 L280.94,36.428 L299.44,36.428 L299.44,25.18 L280.94,25.18 L280.94,16.596 L301.29,16.596 L301.29,5.2 L269.1,5.2 L269.1,57 L301.66,57 Z M320.16,57 L320.16,28.88 L340.14,57 L349.02,57 L349.02,5.2 L337.18,5.2 L337.18,33.32 L317.2,5.2 L308.32,5.2 L308.32,57 L320.16,57 Z M378.62,57 C385.773333,57 391.755,54.521 396.565,49.563 C401.375,44.605 403.78,38.4506667 403.78,31.1 C403.78,23.7493333 401.375,17.595 396.565,12.637 C391.755,7.679 385.773333,5.2 378.62,5.2 L378.62,5.2 L357.9,5.2 L357.9,57 L378.62,57 Z M378.62,45.604 L369.74,45.604 L369.74,16.596 L378.62,16.596 C382.714667,16.596 386.032333,17.9156667 388.573,20.555 C391.113667,23.1943333 392.384,26.7093333 392.384,31.1 C392.384,35.4906667 391.113667,39.0056667 388.573,41.645 C386.032333,44.2843333 382.714667,45.604 378.62,45.604 L378.62,45.604 Z" id="path-1"></path>
        <path d="M13.185,35 L17.325,21.365 L21.465,35 L27,35 L34.155,12.5 L27.99,12.5 L24.165,26.36 L20.07,12.5 L14.58,12.5 L10.485,26.315 L6.66,12.5 L0.495,12.5 L7.65,35 L13.185,35 Z M47.565,35.63 C51.885,35.63 55.155,34.025 57.375,30.815 L57.375,30.815 L52.695,28.115 C51.555,29.615 49.875,30.365 47.655,30.365 C44.205,30.365 42.09,28.955 41.31,26.135 L41.31,26.135 L58.275,26.135 C58.425,25.295 58.5,24.5 58.5,23.75 C58.5,20.39 57.4275,17.57 55.2825,15.29 C53.1375,13.01 50.415,11.87 47.115,11.87 C43.635,11.87 40.785,13.0025 38.565,15.2675 C36.345,17.5325 35.235,20.36 35.235,23.75 C35.235,27.17 36.36,30.005 38.61,32.255 C40.86,34.505 43.845,35.63 47.565,35.63 Z M52.695,21.635 L41.22,21.635 C41.55,20.195 42.225,19.0775 43.245,18.2825 C44.265,17.4875 45.555,17.09 47.115,17.09 C48.435,17.09 49.6125,17.465 50.6475,18.215 C51.6825,18.965 52.365,20.105 52.695,21.635 L52.695,21.635 Z M73.53,35.63 C77.85,35.63 81.12,34.025 83.34,30.815 L83.34,30.815 L78.66,28.115 C77.52,29.615 75.84,30.365 73.62,30.365 C70.17,30.365 68.055,28.955 67.275,26.135 L67.275,26.135 L84.24,26.135 C84.39,25.295 84.465,24.5 84.465,23.75 C84.465,20.39 83.3925,17.57 81.2475,15.29 C79.1025,13.01 76.38,11.87 73.08,11.87 C69.6,11.87 66.75,13.0025 64.53,15.2675 C62.31,17.5325 61.2,20.36 61.2,23.75 C61.2,27.17 62.325,30.005 64.575,32.255 C66.825,34.505 69.81,35.63 73.53,35.63 Z M78.66,21.635 L67.185,21.635 C67.515,20.195 68.19,19.0775 69.21,18.2825 C70.23,17.4875 71.52,17.09 73.08,17.09 C74.4,17.09 75.5775,17.465 76.6125,18.215 C77.6475,18.965 78.33,20.105 78.66,21.635 L78.66,21.635 Z M94.32,35 L94.32,24.785 L102.51,35 L109.26,35 L99.945,23.615 L108.99,12.5 L102.06,12.5 L94.32,22.4 L94.32,3.5 L88.515,3.5 L88.515,35 L94.32,35 Z" id="path-2"></path>
        <path d="M12.114,16.204 L12.114,14.748 L3.196,10.9 L12.114,7.052 L12.114,5.596 L1.714,10.224 L1.714,11.576 L12.114,16.204 Z M15.91,22.6 L26.31,-0.8 L25.27,-0.8 L14.87,22.6 L15.91,22.6 Z M38.062,20.286 C40.6793333,20.286 42.898,19.376 44.718,17.556 C46.538,15.7186667 47.448,13.5 47.448,10.9 C47.448,8.3 46.538,6.08566667 44.718,4.257 C42.898,2.42833333 40.6793333,1.514 38.062,1.514 C35.4446667,1.514 33.226,2.42833333 31.406,4.257 C29.586,6.08566667 28.676,8.3 28.676,10.9 C28.676,13.5 29.586,15.7143333 31.406,17.543 C33.226,19.3716667 35.4446667,20.286 38.062,20.286 Z M38.062,18.96 C35.826,18.96 33.928,18.18 32.368,16.62 C30.8253333,15.0426667 30.054,13.136 30.054,10.9 C30.054,8.664 30.8296667,6.76166667 32.381,5.193 C33.9323333,3.62433333 35.826,2.84 38.062,2.84 C40.298,2.84 42.1916667,3.62433333 43.743,5.193 C45.2943333,6.76166667 46.07,8.664 46.07,10.9 C46.07,13.136 45.2943333,15.0383333 43.743,16.607 C42.1916667,18.1756667 40.298,18.96 38.062,18.96 Z M52.31,20 L52.31,4.348 L63.048,20 L64.27,20 L64.27,1.8 L62.892,1.8 L62.892,17.452 L52.128,1.8 L50.932,1.8 L50.932,20 L52.31,20 Z M78.752,20 L78.752,18.7 L70.172,18.7 L70.172,1.8 L68.794,1.8 L68.794,20 L78.752,20 Z M82.99,20 L82.99,1.8 L81.612,1.8 L81.612,20 L82.99,20 Z M88.892,20 L88.892,4.348 L99.63,20 L100.852,20 L100.852,1.8 L99.474,1.8 L99.474,17.452 L88.71,1.8 L87.514,1.8 L87.514,20 L88.892,20 Z M115.854,20 L115.854,18.7 L106.754,18.7 L106.754,11.472 L115.074,11.472 L115.074,10.172 L106.754,10.172 L106.754,3.1 L115.724,3.1 L115.724,1.8 L105.376,1.8 L105.376,20 L115.854,20 Z M136.472,20 L136.472,18.674 L127.008,18.674 L132.65,12.876 C133.724667,11.784 134.561,10.7483333 135.159,9.769 C135.757,8.78966667 136.056,7.78 136.056,6.74 C136.056,5.128 135.523,3.854 134.457,2.918 C133.391,1.982 132.121333,1.514 130.648,1.514 C129.434667,1.514 128.347,1.80433333 127.385,2.385 C126.423,2.96566667 125.673333,3.802 125.136,4.894 L125.136,4.894 L126.306,5.596 C127.172667,3.75866667 128.62,2.84 130.648,2.84 C131.792,2.84 132.745333,3.18666667 133.508,3.88 C134.270667,4.57333333 134.652,5.52666667 134.652,6.74 C134.652,8.144 133.672667,9.86 131.714,11.888 L131.714,11.888 L125.032,18.752 L125.032,20 L136.472,20 Z M145.546,20.286 C147.695333,20.286 149.368,19.4366667 150.564,17.738 C151.76,16.0393333 152.358,13.76 152.358,10.9 C152.358,8.04 151.76,5.76066667 150.564,4.062 C149.368,2.36333333 147.695333,1.514 145.546,1.514 C143.396667,1.514 141.724,2.36333333 140.528,4.062 C139.332,5.76066667 138.734,8.04 138.734,10.9 C138.734,13.76 139.332,16.0393333 140.528,17.738 C141.724,19.4366667 143.396667,20.286 145.546,20.286 Z M145.546,18.96 C143.847333,18.96 142.521333,18.258 141.568,16.854 C140.614667,15.4326667 140.138,13.448 140.138,10.9 C140.138,8.352 140.614667,6.37166667 141.568,4.959 C142.521333,3.54633333 143.847333,2.84 145.546,2.84 C147.244667,2.84 148.570667,3.54633333 149.524,4.959 C150.477333,6.37166667 150.954,8.352 150.954,10.9 C150.954,13.448 150.477333,15.4283333 149.524,16.841 C148.570667,18.2536667 147.244667,18.96 145.546,18.96 Z M166.034,20 L166.034,18.674 L156.57,18.674 L162.212,12.876 C163.286667,11.784 164.123,10.7483333 164.721,9.769 C165.319,8.78966667 165.618,7.78 165.618,6.74 C165.618,5.128 165.085,3.854 164.019,2.918 C162.953,1.982 161.683333,1.514 160.21,1.514 C158.996667,1.514 157.909,1.80433333 156.947,2.385 C155.985,2.96566667 155.235333,3.802 154.698,4.894 L154.698,4.894 L155.868,5.596 C156.734667,3.75866667 158.182,2.84 160.21,2.84 C161.354,2.84 162.307333,3.18666667 163.07,3.88 C163.832667,4.57333333 164.214,5.52666667 164.214,6.74 C164.214,8.144 163.234667,9.86 161.276,11.888 L161.276,11.888 L154.594,18.752 L154.594,20 L166.034,20 Z M175.108,20.286 C177.257333,20.286 178.93,19.4366667 180.126,17.738 C181.322,16.0393333 181.92,13.76 181.92,10.9 C181.92,8.04 181.322,5.76066667 180.126,4.062 C178.93,2.36333333 177.257333,1.514 175.108,1.514 C172.958667,1.514 171.286,2.36333333 170.09,4.062 C168.894,5.76066667 168.296,8.04 168.296,10.9 C168.296,13.76 168.894,16.0393333 170.09,17.738 C171.286,19.4366667 172.958667,20.286 175.108,20.286 Z M175.108,18.96 C173.409333,18.96 172.083333,18.258 171.13,16.854 C170.176667,15.4326667 169.7,13.448 169.7,10.9 C169.7,8.352 170.176667,6.37166667 171.13,4.959 C172.083333,3.54633333 173.409333,2.84 175.108,2.84 C176.806667,2.84 178.132667,3.54633333 179.086,4.959 C180.039333,6.37166667 180.516,8.352 180.516,10.9 C180.516,13.448 180.039333,15.4283333 179.086,16.841 C178.132667,18.2536667 176.806667,18.96 175.108,18.96 Z M184.936,16.204 L195.336,11.576 L195.336,10.224 L184.936,5.596 L184.936,7.052 L193.854,10.9 L184.936,14.748 L184.936,16.204 Z" id="path-3"></path>
    </defs>
    <g id="Page-1" stroke="none" stroke-width="1" fill="none" fill-rule="evenodd">
        <g id="logo" transform="translate(-1.000000, 3.000000)" fill-rule="nonzero">
            <g id="Group" transform="translate(0.213000, 0.672000)" fill="#FFFFFF">
                <rect id="Rectangle" x="0.787" y="94.328" width="467" height="68"></rect>
                <path d="M467.787,-3.672 L0.787,-3.672 L0.787,107.328 L467.787,107.328 L467.787,-3.672 Z M459.787,4.328 L459.787,99.328 L8.786,99.328 L8.786,4.328 L459.787,4.328 Z" id="Rectangle"></path>
            </g>
            <g id="Group" transform="translate(34.000000, 19.000000)">
                <g id="FRONT-END">
                    <use fill="#000000" xlink:href="#path-1"></use>
                    <use fill="#FFFFFF" xlink:href="#path-1"></use>
                </g>
            </g>
            <g id="Group" transform="translate(41.000000, 107.000000)" fill="#000000">
                <g id="week">
                    <use xlink:href="#path-2"></use>
                    <use xlink:href="#path-2"></use>
                </g>
            </g>
            <g id="Group" transform="translate(236.000000, 119.000000)" fill="#000000">
                <g id="&lt;/ONLINE2020&gt;">
                    <use xlink:href="#path-3"></use>
                    <use xlink:href="#path-3"></use>
                </g>
            </g>
        </g>
    </g>
</svg>
