<?xml version="1.0" encoding="UTF-8"?>
<svg width="291px" height="74px" viewBox="0 0 291 74" version="1.1" xmlns="http://www.w3.org/2000/svg" xmlns:xlink="http://www.w3.org/1999/xlink">
    <!-- Generator: Sketch 64 (93537) - https://sketch.com -->
    <title>Logo_Full</title>
    <desc>Created with Sketch.</desc>
    <g id="Welcome" stroke="none" stroke-width="1" fill="none" fill-rule="evenodd">
        <g id="Cover:-Google-Forms" transform="translate(-203.000000, -205.000000)" fill="#FFFFFF">
            <g id="Logo_Full" transform="translate(203.000000, 205.000000)">
                <path d="M124.858937,44.6916773 C126.312289,44.6916773 127.025628,45.4071376 126.999297,46.864468 L126.999297,52.8272093 C126.999297,54.2845396 126.285958,55 124.858937,55 L96.1663494,55 C94.7133393,55 94,54.2845396 94,52.8272093 L94,19.1731337 C94,17.7154604 94.7133393,17 96.1663494,17 L105.86243,17 C107.315782,17 108.029121,17.7154604 108.029121,19.1731337 L108.029121,44.6916773 L124.858937,44.6916773 Z" id="Fill-1"></path>
                <path d="M134.770391,52.7068154 C130.923347,49.5566992 129,45.0483984 129,39.1555509 L129,20.2270851 C129,18.7332228 129.731468,18 131.221404,18 L141.164247,18 C142.654183,18 143.385651,18.7332228 143.385651,20.2270851 L143.385651,38.4223282 C143.385651,43.4192098 146.095168,45.4853092 151.4865,45.4853092 C156.931833,45.4853092 159.640999,43.4192098 159.640999,38.4223282 L159.640999,20.2270851 C159.640999,18.7332228 160.372817,18 161.862753,18 L171.778245,18 C173.268181,18 174,18.7332228 174,20.2270851 L174,39.1555509 C174,45.0483984 172.076303,49.5566992 168.229259,52.7068154 C164.382215,55.8569317 158.828179,57 151.540501,57 C144.198471,57 138.617785,55.8569317 134.770391,52.7068154" id="Fill-3"></path>
                <path d="M220.070268,17.0531253 C220.972961,17.0531253 221.557116,17.3177235 221.822735,17.8739966 C222.088011,18.4302697 221.955373,19.0389826 221.397676,19.7275548 L208.654492,36.0397583 L221.397676,52.378353 C221.981832,53.0669252 222.140928,53.6759809 221.875653,54.20552 C221.610034,54.7350591 221.026222,55 220.097071,55 L208.362757,55 C207.247707,55 206.371474,54.5763687 205.760516,53.7027149 L196.415743,41.1240191 L193.097051,41.1240191 L193.097051,52.8287183 C193.097051,54.2850365 192.380258,55 190.920212,55 L181.176495,55 C179.71645,55 179,54.2850365 179,52.8287183 L179,19.1980157 C179,17.7416975 179.71645,17.0263913 181.176495,17.0263913 L190.920212,17.0263913 C192.380258,17.0263913 193.097051,17.7416975 193.097051,19.1980157 L193.097051,30.9291062 L196.415743,30.9291062 L205.760516,18.3507531 C206.371474,17.4767566 207.247707,17.0263913 208.362757,17 L220.097071,17 L220.070268,17.0531253 Z" id="Fill-5"></path>
                <path d="M241,19.1728103 L241,52.8271897 C241,54.2845332 240.288141,55 238.837806,55 L229.162194,55 C227.711859,55 227,54.2845332 227,52.8271897 L227,19.1728103 C227,17.7151238 227.711859,17 229.162194,17 L238.837806,17 C240.288141,17 241,17.7151238 241,19.1728103" id="Fill-7"></path>
                <path d="M279.044689,17 L288.816688,17 C290.28142,17 291,17.7154668 291,19.1728103 L291,52.8275327 C291,54.2848762 290.28142,55 288.816688,55 L276.328559,55 C275.210194,55 274.304817,54.5496606 273.638968,53.6486389 L260.831355,36.2119648 L260.139312,36.2119648 L260.139312,52.8275327 C260.139312,54.2848762 259.420043,55 257.955656,55 L248.183312,55 C246.718925,55 246,54.2848762 246,52.8275327 L246,19.1728103 C246,17.7154668 246.718925,17 248.183312,17 L260.937849,17 C262.056215,17 262.935054,17.4770922 263.573677,18.4309336 L276.168645,36.7154668 L276.861377,36.7154668 L276.861377,19.1728103 C276.861377,17.7154668 277.580302,17 279.044689,17" id="Fill-9"></path>
                <path d="M4.41078695,0 L70.4318141,0 C72.7153786,0 73.8588904,2.75866127 72.2439308,4.37197007 L50.0177429,33.0514025 C48.2844891,35.5152582 48.2920986,38.8030488 50.0371128,41.2586099 L72.2439308,69.6280299 C73.8585445,71.2413387 72.7153786,74 70.4318141,74 L4.41078695,74 C1.98471577,74 0,72.0168882 0,69.5927777 L0,4.40722232 C0,1.9831118 1.98471577,0 4.41078695,0" id="Fill-11"></path>
            </g>
        </g>
    </g>
</svg>