<?xml version="1.0" standalone="no"?>
<!DOCTYPE svg PUBLIC "-//W3C//DTD SVG 20010904//EN"
 "http://www.w3.org/TR/2001/REC-SVG-20010904/DTD/svg10.dtd">
<svg version="1.0" xmlns="http://www.w3.org/2000/svg"
 width="1000.000000pt" height="1000.000000pt" viewBox="0 0 1000.000000 1000.000000"
 preserveAspectRatio="xMidYMid meet">
<metadata>
Created by potrace 1.11, written by Peter Selinger 2001-2013
</metadata>
<g transform="translate(0.000000,1000.000000) scale(0.100000,-0.100000)"
fill="#000000" stroke="none">
<path d="M0 5000 l0 -5000 5000 0 5000 0 0 5000 0 5000 -5000 0 -5000 0 0
-5000z m4245 2865 c191 -49 367 -190 460 -367 104 -197 104 -479 0 -676 -193
-368 -660 -500 -1020 -290 -87 51 -207 172 -258 258 -21 36 -49 101 -64 145
-24 72 -27 95 -27 225 0 130 3 153 27 225 37 112 90 197 177 286 113 114 248
185 399 209 75 12 232 4 306 -15z m-2255 -160 l0 -155 -265 0 -265 0 0 -135 0
-135 260 0 260 0 0 -155 0 -155 -260 0 -260 0 0 -255 0 -255 -160 0 -160 0 0
700 0 700 425 0 425 0 0 -155z m852 144 c91 -19 158 -57 234 -133 100 -100
144 -205 144 -340 0 -136 -87 -291 -208 -371 -23 -15 -42 -32 -42 -36 0 -8
210 -375 272 -476 l20 -33 -174 0 -173 0 -130 228 -130 227 -77 3 -78 3 0
-231 0 -230 -160 0 -160 0 0 700 0 700 305 0 c185 0 325 -4 357 -11z m2628
-364 c146 -206 268 -374 273 -375 4 0 7 169 7 375 l0 375 155 0 155 0 0 -218
c0 -120 3 -435 7 -700 l6 -482 -124 0 -124 0 -265 375 c-146 206 -268 374
-272 375 -5 0 -8 -169 -8 -375 l0 -375 -155 0 -155 0 0 700 0 700 118 0 117 0
265 -375z m1770 220 l0 -155 -180 0 -180 0 0 -545 0 -545 -155 0 -155 0 0 545
0 545 -180 0 -180 0 0 155 0 155 515 0 515 0 0 -155z m-5230 -2000 l0 -155
-275 0 -275 0 0 -115 0 -115 250 0 250 0 0 -150 0 -150 -250 0 -250 0 0 -125
0 -125 280 0 280 0 0 -155 0 -155 -440 0 -440 0 0 700 0 700 435 0 435 0 0
-155z m697 -221 l268 -377 3 377 2 376 160 0 160 0 0 -700 0 -700 -120 0 -120
0 -267 376 -268 377 -3 -377 -2 -376 -160 0 -160 0 0 700 0 700 120 0 120 0
267 -376z m1610 343 c201 -67 360 -231 430 -442 24 -72 27 -95 27 -225 0 -130
-3 -153 -27 -225 -70 -211 -229 -375 -430 -442 -82 -27 -82 -27 -429 -31
l-348 -4 0 702 0 702 348 -4 c347 -4 347 -4 429 -31z m-2822 -2451 c66 -267
122 -482 124 -480 3 2 64 219 136 482 l132 477 130 3 130 3 40 -143 c22 -79
82 -297 134 -486 62 -227 97 -336 102 -325 4 10 57 221 117 468 61 248 113
458 116 468 5 15 22 17 170 17 112 0 164 -3 164 -11 0 -10 -350 -1287 -371
-1356 l-11 -33 -181 0 -182 0 -99 363 c-55 199 -106 384 -114 412 l-15 49
-103 -374 c-56 -206 -108 -392 -114 -412 l-11 -38 -182 0 -182 0 -189 688
c-104 378 -191 693 -193 700 -4 9 33 12 164 12 l169 0 119 -484z m2505 329 l0
-155 -275 0 -275 0 0 -115 0 -115 250 0 250 0 0 -150 0 -150 -247 -2 -248 -3
-3 -122 -3 -123 281 0 280 0 0 -155 0 -155 -435 0 -435 0 0 700 0 700 430 0
430 0 0 -155z m1060 0 l0 -155 -275 0 -275 0 0 -115 0 -115 250 0 250 0 0
-150 0 -150 -247 -2 -248 -3 -3 -122 -3 -123 281 0 280 0 0 -155 0 -155 -435
0 -435 0 0 700 0 700 430 0 430 0 0 -155z m510 -146 c0 -172 4 -298 9 -295 5
3 102 139 216 301 l208 295 178 0 c99 0 179 -2 179 -5 0 -4 -102 -153 -226
-332 -124 -179 -228 -331 -230 -338 -3 -7 103 -171 235 -363 133 -193 241
-354 241 -357 0 -3 -80 -5 -179 -5 l-178 0 -218 315 c-120 174 -222 318 -226
321 -5 3 -9 -138 -9 -315 l0 -321 -155 0 -155 0 0 700 0 700 155 0 155 0 0
-301z"/>
<path d="M4020 7573 c-231 -20 -388 -215 -366 -455 12 -132 71 -236 172 -303
71 -47 139 -67 233 -66 262 1 432 204 399 477 -19 161 -139 299 -288 333 -59
13 -107 17 -150 14z"/>
<path d="M2500 7380 l0 -180 136 0 c122 0 140 2 176 22 59 33 83 79 83 158 0
79 -24 125 -83 158 -36 20 -54 22 -176 22 l-136 0 0 -180z"/>
<path d="M3860 5160 l0 -392 173 4 c162 3 175 5 228 29 75 35 134 96 172 177
30 63 32 74 32 182 0 108 -2 119 -32 182 -38 81 -97 142 -172 177 -53 24 -66
26 -228 29 l-173 4 0 -392z"/>
</g>
</svg>
